<?xml version="1.0" encoding="utf-8"?>
<!-- Generator: Adobe Illustrator 16.0.0, SVG Export Plug-In . SVG Version: 6.00 Build 0)  -->
<!DOCTYPE svg PUBLIC "-//W3C//DTD SVG 1.1//EN" "http://www.w3.org/Graphics/SVG/1.1/DTD/svg11.dtd">
<svg version="1.1" id="Layer_1" xmlns="http://www.w3.org/2000/svg" xmlns:xlink="http://www.w3.org/1999/xlink" x="0px" y="0px"
	 width="220px" height="65.861px" viewBox="0 0 220 65.861" enable-background="new 0 0 220 65.861" xml:space="preserve">
<g>
	<path d="M199.032,50.388c-1.193-0.299-2.389-0.552-3.615-0.807c-1.237-0.272-2.487-0.516-3.755-0.725
		c-5.998-0.968-12.392-1.292-19.604-0.976c0.157-0.062,0.315-0.13,0.473-0.193c-4.073,0.033-8.129-0.569-7.307-1.062
		c0.511-0.307,2.824-2.501,5.336-4.944c-0.242,0.096-0.486,0.196-0.728,0.291c0.785-0.689,1.545-1.381,2.255-2.076
		c1.971-2.004,3.603-4.135,5.003-6.201c0.706-1.021,1.312-2.119,1.86-3.208c0.55-1.086,1.04-2.17,1.475-3.251
		c0.435-1.08,0.814-2.158,1.143-3.232c0.319-1.092,0.569-2.213,0.784-3.311c0.426-2.203,0.668-4.387,0.763-6.549
		c0.176-4.349-0.318-8.752-1.071-12.973c-1.369,1.328-2.671,2.782-4.006,4.189c-1.35,1.383-2.657,2.848-3.913,4.418
		c-1.305,1.477-2.561,3.053-3.754,4.766c-1.19,1.721-2.406,3.395-3.51,5.328c-4.008,6.748-7.37,15.166-9.833,26.513
		c-0.02,0.005-0.039,0.011-0.059,0.017c-2,0.559-3.945,1.102-5.836,1.631c-1.913,0.436-3.77,0.859-5.566,1.27
		c-0.899,0.197-1.779,0.418-2.653,0.588c-0.878,0.152-1.74,0.303-2.587,0.449c-1.692,0.295-3.321,0.58-4.886,0.853
		c-1.576,0.195-3.085,0.383-4.526,0.562c-1.441,0.165-2.81,0.373-4.114,0.48c-1.308,0.094-2.542,0.182-3.702,0.266
		c-2.318,0.174-4.338,0.479-6.042,0.475c-1.702,0.037-3.082,0.238-4.116,0.238h-3.88c-1.018,0-2.382-0.2-4.069-0.236
		c-0.843-0.031-1.771-0.082-2.771-0.16c-1-0.074-2.078-0.188-3.231-0.271c-1.154-0.083-2.383-0.189-3.684-0.283
		c-1.301-0.095-2.662-0.32-4.099-0.481c-1.436-0.177-2.941-0.365-4.512-0.558c-1.56-0.272-3.185-0.559-4.873-0.853
		c-0.844-0.146-1.704-0.297-2.579-0.449c-0.876-0.152-1.751-0.385-2.649-0.578c-1.794-0.406-3.647-0.827-5.558-1.26
		c-1.96-0.555-3.991-1.103-6.066-1.704c-2.462-11.343-5.824-19.758-9.832-26.506c-1.103-1.934-2.318-3.607-3.509-5.328
		c-1.193-1.713-2.449-3.289-3.754-4.766c-1.256-1.57-2.563-3.035-3.913-4.418c-1.336-1.407-2.637-2.861-4.007-4.189
		c-0.752,4.221-1.246,8.624-1.07,12.973c0.095,2.162,0.337,4.346,0.763,6.549c0.214,1.098,0.465,2.219,0.784,3.311
		c0.328,1.074,0.708,2.152,1.143,3.232c0.435,1.081,0.925,2.165,1.475,3.251c0.549,1.089,1.154,2.187,1.86,3.208
		c0.861,1.271,1.823,2.562,2.884,3.838c3.477,3.441,8.99,8.849,9.814,9.343c1.015,0.608-5.408,1.386-10.117,0.924
		C41.27,47.649,35.647,48,30.338,48.856c-1.268,0.209-2.518,0.452-3.755,0.725c-1.227,0.255-2.422,0.508-3.615,0.807
		c-2.383,0.589-4.718,1.289-7.019,2.074C11.362,54.006,7,55.751,2.613,57.696c2.636,1.194,5.238,2.391,7.924,3.357
		c2.699,0.944,5.404,1.787,8.105,2.492c2.754,0.613,5.508,1.083,8.244,1.386c2.733,0.31,5.539,0.269,8.267,0.124
		c9.817-0.676,19.418-4.405,27.962-12.514c0.022,0.007,0.045,0.014,0.067,0.02c2.076,0.6,4.097,1.182,6.06,1.747
		c1.987,0.472,3.916,0.929,5.782,1.372c0.936,0.213,1.851,0.449,2.759,0.633c0.912,0.166,1.809,0.33,2.688,0.491
		c1.761,0.321,3.456,0.631,5.082,0.928c1.64,0.218,3.21,0.426,4.709,0.624c1.5,0.185,2.925,0.41,4.283,0.533
		c1.36,0.108,2.646,0.211,3.853,0.308c2.415,0.2,4.518,0.129,6.293,0.141c1.772,0.05,3.209-0.126,4.287-0.126h4.042
		c1.06,0,2.48,0.177,4.238,0.126c0.878-0.039,1.844,0.099,2.885,0.011c1.042-0.084,2.165-0.111,3.366-0.207
		c1.2-0.096,2.479-0.168,3.834-0.276c1.354-0.11,2.771-0.328,4.266-0.509c1.494-0.197,3.06-0.395,4.693-0.609
		c1.622-0.295,3.312-0.6,5.068-0.92c0.877-0.16,1.771-0.322,2.682-0.488c0.91-0.167,1.819-0.413,2.754-0.622
		c1.863-0.439,3.789-0.892,5.773-1.36c2.035-0.592,4.143-1.18,6.295-1.822c8.547,8.113,18.151,11.846,27.972,12.521
		c2.727,0.145,5.533,0.186,8.267-0.124c2.736-0.303,5.49-0.772,8.243-1.386c2.702-0.705,5.407-1.548,8.106-2.492
		c2.686-0.967,5.288-2.163,7.924-3.357c-4.387-1.945-8.749-3.69-13.336-5.234C203.75,51.677,201.415,50.977,199.032,50.388z
		 M51.313,56.977c-2.989,1.265-6.004,2.017-9.031,2.426c-6.014,0.708-11.973-0.159-17.72-1.743
		c4.746-2.281,9.618-4.254,15.356-5.512c1.427-0.301,2.896-0.53,4.428-0.703c1.552-0.221,3.159-0.372,4.833-0.441
		c1.683-0.091,3.398-0.01,5.252,0.002c1.521,0.022,3.113,0.123,4.751,0.273c0.267,0.091,0.539,0.185,0.804,0.275
		C57.152,53.886,54.252,55.663,51.313,56.977z M61.146,45.194c-1.335-0.854-2.57-1.719-3.7-2.592
		c-1.383-1.045-2.56-2.262-3.638-3.393c-1.071-1.152-2.012-2.308-2.835-3.465c-0.805-1.205-1.486-2.424-2.074-3.631
		c-2.378-4.771-3.054-9.754-3.214-14.533c3.288,3.213,6.557,6.572,9.365,10.999c1.43,2.159,2.729,4.64,3.888,7.501
		c1.158,2.7,2.169,5.803,3.018,9.384C61.688,45.38,61.416,45.282,61.146,45.194z M163.062,36.081
		c1.158-2.861,2.458-5.342,3.888-7.501c2.809-4.427,6.077-7.786,9.365-10.999c-0.16,4.779-0.836,9.763-3.214,14.533
		c-0.588,1.207-1.271,2.426-2.074,3.631c-0.824,1.157-1.764,2.312-2.835,3.465c-1.078,1.131-2.256,2.348-3.638,3.393
		c-1.376,1.063-2.899,2.114-4.582,3.148C160.834,42.044,161.871,38.855,163.062,36.081z M179.718,59.402
		c-3.027-0.409-6.042-1.161-9.031-2.426c-3.021-1.351-6.003-3.179-8.912-5.609c2.02-0.218,3.946-0.335,5.794-0.362
		c1.854-0.012,3.569-0.093,5.251-0.002c1.675,0.069,3.282,0.221,4.834,0.441c1.531,0.173,3,0.402,4.428,0.703
		c5.738,1.258,10.61,3.23,15.356,5.512C191.69,59.243,185.731,60.11,179.718,59.402z"/>
</g>
</svg>
