<?xml version="1.0" encoding="utf-8"?>
<!-- Generator: Adobe Illustrator 16.0.0, SVG Export Plug-In . SVG Version: 6.00 Build 0)  -->
<!DOCTYPE svg PUBLIC "-//W3C//DTD SVG 1.1//EN" "http://www.w3.org/Graphics/SVG/1.1/DTD/svg11.dtd">
<svg version="1.1" id="Capa_1" xmlns="http://www.w3.org/2000/svg" xmlns:xlink="http://www.w3.org/1999/xlink" x="0px" y="0px"
	 width="512px" height="512px" viewBox="224 24 512 512" enable-background="new 224 24 512 512" xml:space="preserve">
<g>
	<g>
		<path fill="#F5D75C" d="M689.671,86.229H270.33c-24.625,0-44.717,20.069-44.717,44.717v298.109
			c0,24.564,20.001,44.718,44.717,44.718h419.341c24.563,0,44.716-20.002,44.716-44.718V130.945
			C734.387,106.381,714.387,86.229,689.671,86.229z M683.495,116.04L480.947,318.589L276.648,116.04H683.495z M255.423,422.883
			V136.977l143.569,142.337L255.423,422.883z M276.503,443.961l143.66-143.659l50.338,49.906c5.826,5.776,15.23,5.759,21.034-0.047
			l49.081-49.081l142.881,142.881H276.503L276.503,443.961z M704.576,422.881L561.695,280l142.881-142.882V422.881z"/>
	</g>
</g>
</svg>
