<?xml version="1.0" encoding="utf-8"?>
<!-- Generator: Adobe Illustrator 16.0.0, SVG Export Plug-In . SVG Version: 6.00 Build 0)  -->
<!DOCTYPE svg PUBLIC "-//W3C//DTD SVG 1.1//EN" "http://www.w3.org/Graphics/SVG/1.1/DTD/svg11.dtd">
<svg version="1.1" id="Layer_1" xmlns="http://www.w3.org/2000/svg" xmlns:xlink="http://www.w3.org/1999/xlink" x="0px" y="0px"
	 width="511px" height="511px" viewBox="0 0 511 511" enable-background="new 0 0 511 511" xml:space="preserve">
<path d="M510.5,150.235c-1.197-27.151-5.588-45.818-11.877-61.992c-6.489-17.169-16.472-32.541-29.55-45.319
	c-12.778-12.977-28.251-23.061-45.223-29.448c-16.268-6.29-34.837-10.68-61.987-11.877C334.51,0.3,325.825,0,256.447,0
	c-69.377,0-78.062,0.3-105.314,1.498c-27.151,1.197-45.817,5.591-61.988,11.877C71.972,19.863,56.6,29.846,43.822,42.924
	C30.845,55.703,20.765,71.175,14.374,88.146c-6.29,16.272-10.681,34.837-11.877,61.988c-1.299,27.354-1.599,36.038-1.599,105.416
	s0.3,78.062,1.498,105.314c1.197,27.15,5.592,45.817,11.881,61.992c6.489,17.169,16.568,32.541,29.546,45.318
	c12.778,12.978,28.251,23.062,45.221,29.448c16.272,6.289,34.837,10.68,61.993,11.877c27.249,1.201,35.937,1.497,105.314,1.497
	c69.379,0,78.062-0.296,105.313-1.497c27.151-1.197,45.818-5.588,61.989-11.877c34.342-13.278,61.492-40.43,74.771-74.768
	c6.286-16.271,10.681-34.842,11.877-61.992c1.197-27.253,1.498-35.938,1.498-105.314S511.697,177.488,510.5,150.235z
	 M464.483,358.868c-1.101,24.956-5.291,38.432-8.785,47.416c-8.587,22.262-26.255,39.93-48.518,48.517
	c-8.982,3.493-22.558,7.687-47.415,8.781c-26.953,1.201-35.037,1.497-103.218,1.497s-76.365-0.296-103.22-1.497
	c-24.956-1.096-38.433-5.288-47.417-8.781c-11.078-4.095-21.162-10.583-29.347-19.067c-8.485-8.286-14.974-18.27-19.068-29.348
	c-3.494-8.983-7.686-22.562-8.781-47.416c-1.201-26.953-1.498-35.04-1.498-103.221c0-68.181,0.296-76.366,1.498-103.217
	c1.096-24.956,5.288-38.433,8.781-47.417c4.094-11.082,10.583-21.162,19.169-29.351C84.947,67.279,94.93,60.79,106.012,56.7
	c8.984-3.494,22.562-7.686,47.417-8.786c26.953-1.197,35.04-1.497,103.217-1.497c68.281,0,76.364,0.3,103.221,1.497
	c24.956,1.1,38.432,5.292,47.416,8.786c11.078,4.09,21.162,10.579,29.347,19.064c8.485,8.286,14.974,18.269,19.068,29.351
	c3.494,8.984,7.686,22.558,8.785,47.417c1.196,26.953,1.497,35.036,1.497,103.217C465.98,323.93,465.681,331.915,464.483,358.868z"
	/>
<path d="M256.447,124.281c-72.47,0-131.269,58.795-131.269,131.269c0,72.475,58.799,131.27,131.269,131.27
	c72.475,0,131.27-58.795,131.27-131.27C387.717,183.076,328.922,124.281,256.447,124.281z M256.447,340.701
	c-47.015,0-85.15-38.133-85.15-85.151c0-47.018,38.136-85.151,85.15-85.151c47.02,0,85.15,38.132,85.15,85.151
	S303.467,340.701,256.447,340.701z"/>
<path d="M423.556,119.091c0,16.923-13.722,30.646-30.648,30.646c-16.925,0-30.646-13.722-30.646-30.646
	c0-16.927,13.721-30.645,30.646-30.645C409.834,88.446,423.556,102.164,423.556,119.091z"/>
</svg>
