<?xml version="1.0" encoding="utf-8"?>
<!-- Generator: Adobe Illustrator 16.0.0, SVG Export Plug-In . SVG Version: 6.00 Build 0)  -->
<!DOCTYPE svg PUBLIC "-//W3C//DTD SVG 1.1//EN" "http://www.w3.org/Graphics/SVG/1.1/DTD/svg11.dtd">
<svg version="1.1" id="Layer_1" xmlns="http://www.w3.org/2000/svg" xmlns:xlink="http://www.w3.org/1999/xlink" x="0px" y="0px"
	 width="658.467px" height="359.982px" viewBox="0 0 658.467 359.982" enable-background="new 0 0 658.467 359.982"
	 xml:space="preserve">
<g>
	<g>
		<path fill="#F5D75C" d="M166.371,348.08c-7.038-2.734-13.843-5.794-20.406-9.159c-0.233-1.307-0.751-3.092-1.674-5.524
			c-5.541-14.609-9.319-18.639-12.342-22.669s-7.053-7.557-7.053-7.557s-3.778,8.061,3.778,20.15
			c2.568,4.109,4.807,7.298,6.656,9.742c-12.176-7.17-23.411-15.468-33.591-24.816c-0.061-6.84-0.547-20.229-3.289-26.991
			c-3.778-9.319-16.624-19.395-16.624-19.395s2.268,23.928,11.083,37.277c0.33,0.5,0.644,0.975,0.949,1.438
			c-12.551-12.916-23.277-27.563-31.938-43.761c-2.029-3.796-3.936-7.671-5.726-11.604c2.163-3.573,7.939-14.307,8.756-28.186
			c1.007-17.128-3.273-28.21-3.273-28.21s-12.847,11.586-11.588,27.706c0.694,8.88,2.228,17.066,3.467,22.634
			c-8.304-19.903-13.551-41.136-15.301-61.803c0.278-0.136,0.582-0.305,0.917-0.513c5.289-3.274,16.876-16.372,19.898-26.699
			s2.267-17.883,2.267-17.883s-12.343,7.556-17.632,19.646c-2.816,6.438-4.775,12.303-5.992,16.382
			c-0.201-5.762-0.125-11.458,0.247-17.042c0.998-14.964,5.524-29.824,11.706-43.664c1.104,0.027,8.302-0.064,21.242-6.302
			c14.104-6.8,22.669-24.684,22.669-24.684s-7.053-1.511-22.669,8.06c-11.4,6.987-17.561,15.982-20.059,20.333
			c12.829-27.548,31.882-50.722,42.048-62.033c4.979-1.451,16.573-7.521,23.348-14.719c8.061-8.564,12.09-21.158,12.09-21.158
			s-10.578-0.503-25.69,11.587c-6.623,5.298-10.171,13.406-11.565,18.84c-5.688,6.171-15.204,17.12-24.834,30.982
			c-1.982,2.854-3.838,5.652-5.6,8.406c2.051-6.401,6.346-21.182,6.729-33.796c0.504-16.624-6.045-27.707-6.045-27.707
			S49.24,30.5,51.254,48.131c1.716,15.014,6.535,27.647,7.928,31.068c-11.607,18.593-18.29,34.799-22.026,48.184
			c0-6.53,0-13.242,0-15.78c0-5.542-0.504-14.357-1.763-17.38c-1.26-3.022-4.03-5.037-4.03-5.037s-14.861,11.838-9.319,27.958
			c3.668,10.672,9.089,18.339,12.344,22.319c-0.748,4.219-1.19,8.045-1.417,11.446c-1.151,17.259,0.414,35.529,4.412,53.623
			c-2.683-5.518-6.829-12.922-11.976-18.487c-9.319-10.076-20.905-11.587-20.905-11.587s3.778,22.668,18.639,30.981
			c9.262,5.181,14.121,7.328,16.467,8.211c4.203,15.726,10.227,31.165,17.904,45.523c0.693,1.296,1.399,2.581,2.118,3.857
			c-3.553-3.008-8.263-6.382-14.073-9.231c-13.35-6.548-17.883-5.541-17.883-5.541s10.831,28.714,28.966,28.714
			c5.577,0,9.338,0.167,11.881,0.398c10.802,15.905,23.765,30.035,38.63,42.168c-5.179-2.662-12.513-5.417-20.539-5.285
			c-15.364,0.252-17.631,0.756-17.631,0.756s8.06,15.868,27.202,14.86c14.324-0.754,20.326-1.366,22.441-1.627
			c13.941,9.814,29.308,18.037,45.937,24.498c0.298,0.116,0.604,0.171,0.905,0.171c1.001,0,1.946-0.606,2.33-1.596
			C168.295,350.028,167.658,348.58,166.371,348.08z"/>
		<path fill="#F5D75C" d="M633.061,186.045c-5.148,5.565-9.294,12.97-11.977,18.488c3.998-18.095,5.562-36.365,4.412-53.624
			c-0.227-3.401-0.67-7.227-1.417-11.446c3.254-3.979,8.675-11.647,12.344-22.319c5.542-16.12-9.319-27.958-9.319-27.958
			s-2.771,2.015-4.03,5.037s-1.763,11.838-1.763,17.38c0,2.538,0,9.251,0,15.781C617.575,114,610.893,97.793,599.285,79.2
			c1.394-3.422,6.211-16.055,7.928-31.068c2.016-17.631-10.075-32.744-10.075-32.744s-6.549,11.083-6.045,27.707
			c0.383,12.614,4.678,27.395,6.729,33.795c-1.762-2.753-3.617-5.552-5.6-8.406c-9.63-13.863-19.146-24.812-24.834-30.983
			c-1.395-5.434-4.941-13.541-11.564-18.839C540.71,6.572,530.131,7.075,530.131,7.075s4.03,12.594,12.09,21.158
			c6.774,7.199,18.37,13.269,23.349,14.719c10.166,11.312,29.219,34.484,42.048,62.032c-2.499-4.352-8.66-13.345-20.059-20.331
			c-15.616-9.571-22.669-8.06-22.669-8.06s8.563,17.884,22.669,24.684c12.939,6.238,20.138,6.33,21.242,6.302
			c6.183,13.839,10.709,28.7,11.706,43.664c0.372,5.584,0.448,11.28,0.247,17.042c-1.217-4.079-3.176-9.944-5.992-16.382
			c-5.289-12.09-17.632-19.646-17.632-19.646s-0.756,7.556,2.267,17.883s14.609,23.424,19.898,26.699
			c0.336,0.208,0.64,0.377,0.917,0.514c-1.75,20.667-6.997,41.9-15.301,61.804c1.238-5.567,2.772-13.754,3.466-22.635
			c1.26-16.12-11.588-27.706-11.588-27.706s-4.279,11.082-3.272,28.21c0.815,13.879,6.593,24.612,8.756,28.186
			c-1.79,3.934-3.696,7.809-5.726,11.604c-8.66,16.196-19.387,30.844-31.937,43.759c0.306-0.462,0.619-0.937,0.948-1.436
			c8.815-13.35,11.083-37.277,11.083-37.277s-12.846,10.075-16.624,19.395c-2.742,6.763-3.229,20.15-3.289,26.991
			c-10.181,9.349-21.415,17.646-33.592,24.815c1.85-2.443,4.088-5.632,6.656-9.741c7.557-12.09,3.778-20.15,3.778-20.15
			s-4.03,3.526-7.053,7.557s-6.801,8.06-12.342,22.669c-0.923,2.433-1.44,4.218-1.674,5.523c-6.563,3.365-13.368,6.426-20.407,9.16
			c-1.287,0.5-1.924,1.948-1.424,3.235c0.384,0.989,1.329,1.596,2.33,1.596c0.301,0,0.607-0.055,0.904-0.171
			c16.63-6.461,31.996-14.684,45.938-24.498c2.114,0.261,8.116,0.873,22.441,1.627c19.143,1.008,27.202-14.86,27.202-14.86
			s-2.267-0.504-17.632-0.756c-8.025-0.132-15.359,2.623-20.538,5.285c14.865-12.133,27.827-26.263,38.63-42.168
			c2.542-0.231,6.304-0.398,11.881-0.398c18.135,0,28.966-28.714,28.966-28.714s-4.534-1.007-17.884,5.541
			c-5.81,2.85-10.519,6.224-14.071,9.23c0.718-1.276,1.425-2.562,2.117-3.856c7.677-14.358,13.7-29.798,17.903-45.523
			c2.348-0.883,7.205-3.03,16.467-8.211c14.861-8.312,18.64-30.981,18.64-30.981S642.379,175.969,633.061,186.045z"/>
	</g>
	<g>
		<path fill="#FFFFFF" d="M132.979,208.503v-50.207h-8.874v-2.067h27.474v2.067h-8.955v50.207h8.955v2.066h-27.474v-2.066H132.979z"
			/>
		<path fill="#FFFFFF" d="M207.174,158.296v53.529h-1.661l-35.781-53.772h-0.162v50.45h9.198v2.066H159.44v-2.066h8.064v-50.207
			h-8.631v-2.067h20.747l25.326,38.091h0.162v-36.024h-8.996v-2.067H215.4v2.067H207.174z"/>
		<path fill="#FFFFFF" d="M220.425,156.229h25.975v2.067h-8.631l14.102,38.333h0.162l13.048-38.333h-8.793v-2.067h19.248v2.067
			h-8.307l-18.235,53.529h-1.094l-20.18-53.529h-7.294V156.229z"/>
		<path fill="#FFFFFF" d="M300.091,158.296v23.3h4.903c1.729,0,3.194-0.169,4.396-0.507s2.283-1.249,3.242-2.735
			c0.959-1.485,1.506-3.809,1.641-6.97h2.107v23.017h-2.107c-0.216-4.377-1.06-7.26-2.532-8.651
			c-1.473-1.392-3.722-2.087-6.747-2.087h-4.903v24.84h11.062c6.267,0,10.61-1.317,13.028-3.951
			c2.417-2.634,3.856-6.692,4.315-12.177h2.067l-0.526,18.194h-48.181v-2.066h8.631v-50.207h-8.631v-2.067h46.195l0.932,14.507
			h-2.067c-0.703-4.403-2.147-7.578-4.336-9.522c-2.188-1.945-5.835-2.917-10.941-2.917H300.091z"/>
		<path fill="#FFFFFF" d="M349.325,208.503v-50.207h-8.55v-2.067h29.783c3.89,0,7.084,0.338,9.583,1.013
			c2.499,0.676,4.653,2.074,6.464,4.194c1.81,2.121,2.715,4.559,2.715,7.314c0,3.431-1.324,6.214-3.972,8.347
			c-2.647,2.134-7.132,3.742-13.453,4.823v0.202c4.539,0.892,8.26,2.621,11.164,5.187c2.903,2.567,4.356,6.916,4.356,13.048
			c0,3.513,0.411,5.762,1.235,6.747c0.824,0.986,1.966,1.479,3.424,1.479c0.945,0,2.08-0.188,3.404-0.567v1.985
			c-2.351,0.811-4.619,1.216-6.808,1.216c-4.457,0-7.604-1.242-9.441-3.729c-1.838-2.484-2.729-4.916-2.675-7.294l0.162-6.889
			c0-2.403-0.764-4.774-2.289-7.111c-1.526-2.336-4.991-3.505-10.395-3.505h-5.064v25.812h8.55v2.066h-26.744v-2.066H349.325z
			 M358.969,158.296v22.49h7.294c3.133,0,5.523-0.209,7.172-0.628c1.647-0.419,2.965-1.513,3.951-3.283
			c0.985-1.769,1.479-4.585,1.479-8.449c0-3.161-0.5-5.471-1.499-6.929c-1-1.459-2.208-2.356-3.627-2.695
			c-1.418-0.337-3.275-0.506-5.571-0.506H358.969z"/>
		<path fill="#FFFFFF" d="M420.683,185.689v22.813h8.794v2.066h-27.069v-2.066h8.632v-50.207h-8.632v-2.067h28.001
			c6.321,0,11.083,1.405,14.284,4.214c3.201,2.81,4.802,6.268,4.802,10.374c0,4.214-1.615,7.747-4.843,10.597
			c-3.229,2.851-8.598,4.275-16.107,4.275H420.683z M420.683,158.296v25.286h5.228c2.729,0,4.997-0.229,6.808-0.689
			c1.81-0.459,3.37-1.674,4.681-3.646c1.31-1.972,1.965-5.025,1.965-9.158c0-3.647-0.574-6.328-1.722-8.043
			c-1.148-1.715-2.506-2.769-4.073-3.161c-1.566-0.391-3.512-0.587-5.835-0.587H420.683z"/>
		<path fill="#FFFFFF" d="M476.846,193.631h-17.262l-5.552,14.872h10.049v2.066h-19.693v-2.066h7.497l19.814-53.529h1.257
			l19.004,53.529h7.294v2.066h-25.893v-2.066h8.793L476.846,193.631z M460.354,191.564h15.763l-7.658-21.76h-0.162L460.354,191.564z
			"/>
		<path fill="#FFFFFF" d="M499.822,156.229h46.316l1.419,18.478h-2.067c-1.27-6.186-2.951-10.468-5.045-12.845
			c-2.094-2.377-4.842-3.566-8.246-3.566h-4.416v50.207h9.725v2.066h-29.054v-2.066h9.725v-50.207h-4.417
			c-3.403,0-6.152,1.189-8.246,3.566c-2.094,2.377-3.775,6.659-5.045,12.845h-2.066L499.822,156.229z"/>
	</g>
</g>
</svg>
