<?xml version="1.0" encoding="utf-8"?>
<!-- Generator: Adobe Illustrator 16.0.0, SVG Export Plug-In . SVG Version: 6.00 Build 0)  -->
<!DOCTYPE svg PUBLIC "-//W3C//DTD SVG 1.1//EN" "http://www.w3.org/Graphics/SVG/1.1/DTD/svg11.dtd">
<svg version="1.1" id="Capa_1" xmlns="http://www.w3.org/2000/svg" xmlns:xlink="http://www.w3.org/1999/xlink" x="0px" y="0px"
	 width="960px" height="560px" viewBox="0 0 960 560" enable-background="new 0 0 960 560" xml:space="preserve">
<g>
	<g>
		<path fill="#F5D75C" d="M760,106.365c-20.825,9.135-43.015,15.19-66.15,18.13c23.801-14.21,41.966-36.54,50.506-63.455
			c-22.19,13.23-46.69,22.575-72.801,27.79c-21.069-22.435-51.1-36.33-83.859-36.33c-63.561,0-114.73,51.59-114.73,114.835
			c0,9.1,0.771,17.85,2.66,26.18c-95.445-4.655-179.9-50.4-236.635-120.085c-9.905,17.185-15.715,36.855-15.715,58.03
			c0,39.76,20.475,75.005,50.995,95.41c-18.445-0.35-36.54-5.705-51.87-14.14c0,0.35,0,0.805,0,1.26
			c0,55.79,39.795,102.13,91.98,112.805c-9.345,2.555-19.53,3.78-30.1,3.78c-7.35,0-14.77-0.42-21.735-1.96
			c14.875,45.465,57.085,78.89,107.275,79.975c-39.06,30.555-88.655,48.965-142.345,48.965c-9.415,0-18.445-0.42-27.475-1.574
			c50.855,32.795,111.125,51.52,176.12,51.52c211.26,0,326.76-175,326.76-326.69c0-5.075-0.175-9.975-0.42-14.84
			C725.245,149.8,744.39,129.605,760,106.365z"/>
	</g>
</g>
</svg>
